<?xml version="1.0" encoding="UTF-8" standalone="no"?>
<!DOCTYPE svg PUBLIC "-//W3C//DTD SVG 1.1//EN"
 "http://www.w3.org/Graphics/SVG/1.1/DTD/svg11.dtd">
<!-- Generated by graphviz version 2.36.0 (20140111.2315)
 -->
<!-- Title: models_diagram Pages: 1 -->
<svg width="655pt" height="274pt"
 viewBox="0.00 0.00 655.00 274.00" xmlns="http://www.w3.org/2000/svg" xmlns:xlink="http://www.w3.org/1999/xlink">
<g id="graph0" class="graph" transform="scale(1 1) rotate(0) translate(4 270)">
<title>models_diagram</title>
<polygon fill="none" stroke="none" points="-4,4 -4,-270 651,-270 651,4 -4,4"/>
<!-- _diagram_info -->
<g id="node1" class="node"><title>_diagram_info</title>
<text text-anchor="start" x="7" y="-236.6" font-family="Times,serif" font-size="13.00">Models diagram</text>
<text text-anchor="start" x="7" y="-222.6" font-family="Times,serif" font-size="13.00">Date: Apr 17 2017 &#45; 20:18</text>
<text text-anchor="start" x="7" y="-208.6" font-family="Times,serif" font-size="13.00">Migration version: 20170418010334</text>
<text text-anchor="start" x="7" y="-194.6" font-family="Times,serif" font-size="13.00">Generated by RailRoady 1.5.2</text>
<text text-anchor="start" x="7" y="-180.6" font-family="Times,serif" font-size="13.00">http://railroady.prestonlee.com</text>
</g>
<!-- ApplicationRecord -->
<g id="node2" class="node"><title>ApplicationRecord</title>
<ellipse fill="none" stroke="black" cx="308" cy="-212" rx="77.0154" ry="18"/>
<text text-anchor="middle" x="308" y="-208.3" font-family="Times,serif" font-size="14.00">ApplicationRecord</text>
</g>
<!-- Category -->
<g id="node3" class="node"><title>Category</title>
<path fill="none" stroke="black" d="M415,-159C415,-159 635,-159 635,-159 641,-159 647,-165 647,-171 647,-171 647,-253 647,-253 647,-259 641,-265 635,-265 635,-265 415,-265 415,-265 409,-265 403,-259 403,-253 403,-253 403,-171 403,-171 403,-165 409,-159 415,-159"/>
<text text-anchor="middle" x="525" y="-249.8" font-family="Times,serif" font-size="14.00">Category</text>
<polyline fill="none" stroke="black" points="403,-242 647,-242 "/>
<text text-anchor="start" x="411" y="-226.8" font-family="Times,serif" font-size="14.00">id :integer</text>
<text text-anchor="start" x="411" y="-211.8" font-family="Times,serif" font-size="14.00">name :character varying</text>
<text text-anchor="start" x="411" y="-196.8" font-family="Times,serif" font-size="14.00">product_type :character varying</text>
<text text-anchor="start" x="411" y="-181.8" font-family="Times,serif" font-size="14.00">created_at :timestamp without time zone</text>
<text text-anchor="start" x="411" y="-166.8" font-family="Times,serif" font-size="14.00">updated_at :timestamp without time zone</text>
</g>
<!-- Product -->
<g id="node4" class="node"><title>Product</title>
<path fill="none" stroke="black" d="M415,-0.5C415,-0.5 635,-0.5 635,-0.5 641,-0.5 647,-6.5 647,-12.5 647,-12.5 647,-109.5 647,-109.5 647,-115.5 641,-121.5 635,-121.5 635,-121.5 415,-121.5 415,-121.5 409,-121.5 403,-115.5 403,-109.5 403,-109.5 403,-12.5 403,-12.5 403,-6.5 409,-0.5 415,-0.5"/>
<text text-anchor="middle" x="525" y="-106.3" font-family="Times,serif" font-size="14.00">Product</text>
<polyline fill="none" stroke="black" points="403,-98.5 647,-98.5 "/>
<text text-anchor="start" x="411" y="-83.3" font-family="Times,serif" font-size="14.00">id :integer</text>
<text text-anchor="start" x="411" y="-68.3" font-family="Times,serif" font-size="14.00">name :integer</text>
<text text-anchor="start" x="411" y="-53.3" font-family="Times,serif" font-size="14.00">price :integer</text>
<text text-anchor="start" x="411" y="-38.3" font-family="Times,serif" font-size="14.00">category_id :integer</text>
<text text-anchor="start" x="411" y="-23.3" font-family="Times,serif" font-size="14.00">created_at :timestamp without time zone</text>
<text text-anchor="start" x="411" y="-8.3" font-family="Times,serif" font-size="14.00">updated_at :timestamp without time zone</text>
</g>
<!-- Category&#45;&gt;Product -->
<g id="edge1" class="edge"><title>Category&#45;&gt;Product</title>
<path fill="none" stroke="#95af70" d="M525,-150.615C525,-144.513 525,-138.28 525,-132.088"/>
<ellipse fill="none" stroke="#95af70" cx="525" cy="-154.887" rx="4" ry="4"/>
<polygon fill="#95af70" stroke="#95af70" points="525,-131.735 529.5,-121.735 525,-126.735 525,-121.735 525,-121.735 525,-121.735 525,-126.735 520.5,-121.735 525,-131.735 525,-131.735"/>
</g>
</g>
</svg>
