<?xml version="1.0" encoding="UTF-8" standalone="no"?>
<!DOCTYPE svg PUBLIC "-//W3C//DTD SVG 1.1//EN"
 "http://www.w3.org/Graphics/SVG/1.1/DTD/svg11.dtd">
<!-- Generated by graphviz version 2.36.0 (20140111.2315)
 -->
<!-- Title: models_diagram Pages: 1 -->
<svg width="496pt" height="158pt"
 viewBox="0.00 0.00 496.00 158.00" xmlns="http://www.w3.org/2000/svg" xmlns:xlink="http://www.w3.org/1999/xlink">
<g id="graph0" class="graph" transform="scale(1 1) rotate(0) translate(4 154)">
<title>models_diagram</title>
<polygon fill="none" stroke="none" points="-4,4 -4,-154 492,-154 492,4 -4,4"/>
<!-- _diagram_info -->
<g id="node1" class="node"><title>_diagram_info</title>
<text text-anchor="start" x="7" y="-135.6" font-family="Times,serif" font-size="13.00">Models diagram</text>
<text text-anchor="start" x="7" y="-121.6" font-family="Times,serif" font-size="13.00">Date: Apr 17 2017 &#45; 20:18</text>
<text text-anchor="start" x="7" y="-107.6" font-family="Times,serif" font-size="13.00">Migration version: 20170418010334</text>
<text text-anchor="start" x="7" y="-93.6" font-family="Times,serif" font-size="13.00">Generated by RailRoady 1.5.2</text>
<text text-anchor="start" x="7" y="-79.6" font-family="Times,serif" font-size="13.00">http://railroady.prestonlee.com</text>
</g>
<!-- ApplicationRecord -->
<g id="node2" class="node"><title>ApplicationRecord</title>
<ellipse fill="none" stroke="black" cx="308" cy="-111" rx="77.0154" ry="18"/>
<text text-anchor="middle" x="308" y="-107.3" font-family="Times,serif" font-size="14.00">ApplicationRecord</text>
</g>
<!-- Category -->
<g id="node3" class="node"><title>Category</title>
<ellipse fill="none" stroke="black" cx="446" cy="-111" rx="42.3456" ry="18"/>
<text text-anchor="middle" x="446" y="-107.3" font-family="Times,serif" font-size="14.00">Category</text>
</g>
<!-- Product -->
<g id="node4" class="node"><title>Product</title>
<ellipse fill="none" stroke="black" cx="446" cy="-18" rx="38.0212" ry="18"/>
<text text-anchor="middle" x="446" y="-14.3" font-family="Times,serif" font-size="14.00">Product</text>
</g>
<!-- Category&#45;&gt;Product -->
<g id="edge1" class="edge"><title>Category&#45;&gt;Product</title>
<path fill="none" stroke="#1d280b" d="M446,-84.7285C446,-72.7246 446,-58.3622 446,-46.1291"/>
<ellipse fill="none" stroke="#1d280b" cx="446" cy="-88.8836" rx="4" ry="4"/>
<polygon fill="#1d280b" stroke="#1d280b" points="446,-46.0397 450.5,-36.0396 446,-41.0397 446,-36.0397 446,-36.0397 446,-36.0397 446,-41.0397 441.5,-36.0397 446,-46.0397 446,-46.0397"/>
</g>
</g>
</svg>
